<mxfile host="65bd71144e">
    <diagram name="Page-1" id="2YBvvXClWsGukQMizWep">
        <mxGraphModel dx="1391" dy="2754" grid="1" gridSize="10" guides="1" tooltips="1" connect="1" arrows="1" fold="1" page="1" pageScale="1" pageWidth="980" pageHeight="1390" math="0" shadow="0">
            <root>
                <mxCell id="0"/>
                <mxCell id="1" parent="0"/>
                <mxCell id="OT9MZSobIj806VVKi1cu-171" value="transaction object" style="html=1;verticalAlign=bottom;endArrow=open;dashed=1;endSize=8;curved=0;rounded=0;fontFamily=Georgia;fontSize=13;" parent="1" edge="1">
                    <mxGeometry relative="1" as="geometry">
                        <mxPoint x="2579.2999999999997" y="-760" as="sourcePoint"/>
                        <mxPoint x="2384.8" y="-760" as="targetPoint"/>
                    </mxGeometry>
                </mxCell>
                <mxCell id="OT9MZSobIj806VVKi1cu-168" value="Create transaction(owner, data)" style="html=1;verticalAlign=bottom;endArrow=block;curved=0;rounded=0;fontFamily=Georgia;fontSize=13;" parent="1" edge="1">
                    <mxGeometry width="80" relative="1" as="geometry">
                        <mxPoint x="2379.7285714285717" y="-800" as="sourcePoint"/>
                        <mxPoint x="2574.8" y="-800" as="targetPoint"/>
                    </mxGeometry>
                </mxCell>
                <mxCell id="OT9MZSobIj806VVKi1cu-185" value="Tansaction data entered" style="html=1;verticalAlign=bottom;endArrow=block;curved=0;rounded=0;dashed=1;fontFamily=Georgia;fontSize=13;" parent="1" target="OT9MZSobIj806VVKi1cu-111" edge="1">
                    <mxGeometry width="80" relative="1" as="geometry">
                        <mxPoint x="2179.8" y="-920.1700000000001" as="sourcePoint"/>
                        <mxPoint x="2369.8" y="-920.1700000000001" as="targetPoint"/>
                    </mxGeometry>
                </mxCell>
                <mxCell id="OT9MZSobIj806VVKi1cu-124" value="" style="endArrow=none;dashed=1;html=1;rounded=0;exitX=0.003;exitY=0.553;exitDx=0;exitDy=0;exitPerimeter=0;entryX=1.006;entryY=0.542;entryDx=0;entryDy=0;entryPerimeter=0;fontFamily=Georgia;fontSize=13;" parent="1" source="OT9MZSobIj806VVKi1cu-120" target="OT9MZSobIj806VVKi1cu-120" edge="1">
                    <mxGeometry width="50" height="50" relative="1" as="geometry">
                        <mxPoint x="1456" y="-950" as="sourcePoint"/>
                        <mxPoint x="1680" y="-1004" as="targetPoint"/>
                    </mxGeometry>
                </mxCell>
                <mxCell id="OT9MZSobIj806VVKi1cu-12" value="LoginController" style="shape=umlLifeline;perimeter=lifelinePerimeter;whiteSpace=wrap;html=1;container=0;dropTarget=0;collapsible=0;recursiveResize=0;outlineConnect=0;portConstraint=eastwest;newEdgeStyle={&quot;edgeStyle&quot;:&quot;elbowEdgeStyle&quot;,&quot;elbow&quot;:&quot;vertical&quot;,&quot;curved&quot;:0,&quot;rounded&quot;:0};fontFamily=Georgia;fontSize=13;" parent="1" vertex="1">
                    <mxGeometry x="1521" y="-1340" width="140" height="420" as="geometry"/>
                </mxCell>
                <mxCell id="OT9MZSobIj806VVKi1cu-13" value="" style="html=1;points=[];perimeter=orthogonalPerimeter;outlineConnect=0;targetShapes=umlLifeline;portConstraint=eastwest;newEdgeStyle={&quot;edgeStyle&quot;:&quot;elbowEdgeStyle&quot;,&quot;elbow&quot;:&quot;vertical&quot;,&quot;curved&quot;:0,&quot;rounded&quot;:0};fontFamily=Georgia;fontSize=13;" parent="OT9MZSobIj806VVKi1cu-12" vertex="1">
                    <mxGeometry x="65" y="80" width="10" height="320" as="geometry"/>
                </mxCell>
                <mxCell id="OT9MZSobIj806VVKi1cu-107" value="" style="edgeStyle=segmentEdgeStyle;endArrow=classic;html=1;curved=0;rounded=0;endSize=8;startSize=8;fontFamily=Georgia;fontSize=13;" parent="OT9MZSobIj806VVKi1cu-12" edge="1">
                    <mxGeometry width="50" height="50" relative="1" as="geometry">
                        <mxPoint x="75" y="210" as="sourcePoint"/>
                        <mxPoint x="75" y="250" as="targetPoint"/>
                        <Array as="points">
                            <mxPoint x="140" y="210"/>
                            <mxPoint x="140" y="250"/>
                        </Array>
                    </mxGeometry>
                </mxCell>
                <mxCell id="OT9MZSobIj806VVKi1cu-108" value="Validate credentials" style="edgeLabel;html=1;align=center;verticalAlign=middle;resizable=0;points=[];fontFamily=Georgia;fontSize=13;" parent="OT9MZSobIj806VVKi1cu-107" vertex="1" connectable="0">
                    <mxGeometry x="0.1111" y="1" relative="1" as="geometry">
                        <mxPoint x="14" y="-9" as="offset"/>
                    </mxGeometry>
                </mxCell>
                <mxCell id="OT9MZSobIj806VVKi1cu-99" value="" style="shape=umlLifeline;perimeter=lifelinePerimeter;whiteSpace=wrap;html=1;container=1;dropTarget=0;collapsible=0;recursiveResize=0;outlineConnect=0;portConstraint=eastwest;newEdgeStyle={&quot;curved&quot;:0,&quot;rounded&quot;:0};participant=umlActor;fontFamily=Georgia;fontSize=13;" parent="1" vertex="1">
                    <mxGeometry x="1381" y="-1340" width="20" height="420" as="geometry"/>
                </mxCell>
                <mxCell id="OT9MZSobIj806VVKi1cu-101" value="" style="html=1;points=[];perimeter=orthogonalPerimeter;outlineConnect=0;targetShapes=umlLifeline;portConstraint=eastwest;newEdgeStyle={&quot;edgeStyle&quot;:&quot;elbowEdgeStyle&quot;,&quot;elbow&quot;:&quot;vertical&quot;,&quot;curved&quot;:0,&quot;rounded&quot;:0};fontFamily=Georgia;fontSize=13;" parent="OT9MZSobIj806VVKi1cu-99" vertex="1">
                    <mxGeometry x="5" y="80" width="10" height="320" as="geometry"/>
                </mxCell>
                <mxCell id="OT9MZSobIj806VVKi1cu-102" value="Visit login page" style="html=1;verticalAlign=bottom;endArrow=block;curved=0;rounded=0;fontFamily=Georgia;fontSize=13;" parent="1" source="OT9MZSobIj806VVKi1cu-101" edge="1">
                    <mxGeometry width="80" relative="1" as="geometry">
                        <mxPoint x="1376" y="-1240" as="sourcePoint"/>
                        <mxPoint x="1586" y="-1240" as="targetPoint"/>
                    </mxGeometry>
                </mxCell>
                <mxCell id="OT9MZSobIj806VVKi1cu-103" value="Display login page" style="html=1;verticalAlign=bottom;endArrow=open;dashed=1;endSize=8;curved=0;rounded=0;fontFamily=Georgia;fontSize=13;" parent="1" target="OT9MZSobIj806VVKi1cu-101" edge="1">
                    <mxGeometry relative="1" as="geometry">
                        <mxPoint x="1586" y="-1200" as="sourcePoint"/>
                        <mxPoint x="1376" y="-1200" as="targetPoint"/>
                    </mxGeometry>
                </mxCell>
                <mxCell id="OT9MZSobIj806VVKi1cu-104" value="login(email, password)" style="html=1;verticalAlign=bottom;endArrow=block;curved=0;rounded=0;fontFamily=Georgia;fontSize=13;" parent="1" source="OT9MZSobIj806VVKi1cu-101" edge="1">
                    <mxGeometry width="80" relative="1" as="geometry">
                        <mxPoint x="1376" y="-1160" as="sourcePoint"/>
                        <mxPoint x="1586" y="-1160" as="targetPoint"/>
                    </mxGeometry>
                </mxCell>
                <mxCell id="OT9MZSobIj806VVKi1cu-109" value="Redirect to homepage" style="html=1;verticalAlign=bottom;endArrow=open;dashed=1;endSize=8;curved=0;rounded=0;fontFamily=Georgia;fontSize=13;" parent="1" edge="1">
                    <mxGeometry relative="1" as="geometry">
                        <mxPoint x="1586" y="-1035.34" as="sourcePoint"/>
                        <mxPoint x="1396" y="-1035.34" as="targetPoint"/>
                    </mxGeometry>
                </mxCell>
                <mxCell id="OT9MZSobIj806VVKi1cu-110" value="FormPageController" style="shape=umlLifeline;perimeter=lifelinePerimeter;whiteSpace=wrap;html=1;container=0;dropTarget=0;collapsible=0;recursiveResize=0;outlineConnect=0;portConstraint=eastwest;newEdgeStyle={&quot;edgeStyle&quot;:&quot;elbowEdgeStyle&quot;,&quot;elbow&quot;:&quot;vertical&quot;,&quot;curved&quot;:0,&quot;rounded&quot;:0};fontFamily=Georgia;fontSize=13;" parent="1" vertex="1">
                    <mxGeometry x="2309.8" y="-1340" width="140" height="830" as="geometry"/>
                </mxCell>
                <mxCell id="OT9MZSobIj806VVKi1cu-111" value="" style="html=1;points=[];perimeter=orthogonalPerimeter;outlineConnect=0;targetShapes=umlLifeline;portConstraint=eastwest;newEdgeStyle={&quot;edgeStyle&quot;:&quot;elbowEdgeStyle&quot;,&quot;elbow&quot;:&quot;vertical&quot;,&quot;curved&quot;:0,&quot;rounded&quot;:0};fontFamily=Georgia;fontSize=13;" parent="OT9MZSobIj806VVKi1cu-110" vertex="1">
                    <mxGeometry x="65" y="80" width="10" height="730" as="geometry"/>
                </mxCell>
                <mxCell id="OT9MZSobIj806VVKi1cu-116" value="Visit transaction creation page" style="html=1;verticalAlign=bottom;endArrow=block;curved=0;rounded=0;fontFamily=Georgia;fontSize=13;" parent="1" source="OT9MZSobIj806VVKi1cu-115" edge="1">
                    <mxGeometry width="80" relative="1" as="geometry">
                        <mxPoint x="2164.8" y="-1240" as="sourcePoint"/>
                        <mxPoint x="2374.8" y="-1240" as="targetPoint"/>
                    </mxGeometry>
                </mxCell>
                <mxCell id="OT9MZSobIj806VVKi1cu-120" value="&lt;div style=&quot;font-size: 11px;&quot;&gt;Alternative&lt;/div&gt;" style="shape=umlFrame;whiteSpace=wrap;html=1;pointerEvents=0;fontFamily=Georgia;fontSize=11;" parent="1" vertex="1">
                    <mxGeometry x="1266" y="-1070" width="415" height="110" as="geometry"/>
                </mxCell>
                <mxCell id="OT9MZSobIj806VVKi1cu-121" value="[if credentials valid]" style="text;html=1;align=center;verticalAlign=middle;resizable=0;points=[];autosize=1;strokeColor=none;fillColor=none;fontFamily=Georgia;fontSize=13;" parent="1" vertex="1">
                    <mxGeometry x="1256" y="-1045" width="140" height="30" as="geometry"/>
                </mxCell>
                <mxCell id="OT9MZSobIj806VVKi1cu-125" value="Display error message" style="html=1;verticalAlign=bottom;endArrow=open;dashed=1;endSize=8;curved=0;rounded=0;fontFamily=Georgia;fontSize=13;" parent="1" edge="1">
                    <mxGeometry relative="1" as="geometry">
                        <mxPoint x="1586" y="-980" as="sourcePoint"/>
                        <mxPoint x="1396" y="-980" as="targetPoint"/>
                    </mxGeometry>
                </mxCell>
                <mxCell id="OT9MZSobIj806VVKi1cu-126" value="[else]" style="text;html=1;align=center;verticalAlign=middle;resizable=0;points=[];autosize=1;strokeColor=none;fillColor=none;fontFamily=Georgia;fontSize=13;" parent="1" vertex="1">
                    <mxGeometry x="1256" y="-1005" width="60" height="30" as="geometry"/>
                </mxCell>
                <mxCell id="OT9MZSobIj806VVKi1cu-130" value="" style="endArrow=none;dashed=1;html=1;rounded=0;exitX=0.003;exitY=0.553;exitDx=0;exitDy=0;exitPerimeter=0;entryX=1.006;entryY=0.542;entryDx=0;entryDy=0;entryPerimeter=0;fontFamily=Georgia;fontSize=13;" parent="1" source="OT9MZSobIj806VVKi1cu-132" target="OT9MZSobIj806VVKi1cu-132" edge="1">
                    <mxGeometry width="50" height="50" relative="1" as="geometry">
                        <mxPoint x="2249.8" y="-1060" as="sourcePoint"/>
                        <mxPoint x="2473.8" y="-1114" as="targetPoint"/>
                    </mxGeometry>
                </mxCell>
                <mxCell id="OT9MZSobIj806VVKi1cu-132" value="&lt;div style=&quot;font-size: 11px;&quot;&gt;Alternative&lt;/div&gt;" style="shape=umlFrame;whiteSpace=wrap;html=1;pointerEvents=0;fontFamily=Georgia;fontSize=13;" parent="1" vertex="1">
                    <mxGeometry x="2055" y="-1220" width="419.8" height="110" as="geometry"/>
                </mxCell>
                <mxCell id="OT9MZSobIj806VVKi1cu-133" value="[if credentials valid]" style="text;html=1;align=center;verticalAlign=middle;resizable=0;points=[];autosize=1;strokeColor=none;fillColor=none;fontFamily=Georgia;fontSize=13;" parent="1" vertex="1">
                    <mxGeometry x="2045" y="-1195" width="140" height="30" as="geometry"/>
                </mxCell>
                <mxCell id="OT9MZSobIj806VVKi1cu-135" value="[else]" style="text;html=1;align=center;verticalAlign=middle;resizable=0;points=[];autosize=1;strokeColor=none;fillColor=none;fontFamily=Georgia;fontSize=13;" parent="1" vertex="1">
                    <mxGeometry x="2045" y="-1160" width="60" height="30" as="geometry"/>
                </mxCell>
                <mxCell id="OT9MZSobIj806VVKi1cu-136" value="Display transaction form" style="html=1;verticalAlign=bottom;endArrow=open;dashed=1;endSize=8;curved=0;rounded=0;fontFamily=Georgia;fontSize=13;" parent="1" source="OT9MZSobIj806VVKi1cu-111" edge="1">
                    <mxGeometry relative="1" as="geometry">
                        <mxPoint x="2379.8" y="-1190" as="sourcePoint"/>
                        <mxPoint x="2184.8" y="-1190" as="targetPoint"/>
                    </mxGeometry>
                </mxCell>
                <mxCell id="OT9MZSobIj806VVKi1cu-137" value="Redirect to login page" style="html=1;verticalAlign=bottom;endArrow=open;dashed=1;endSize=8;curved=0;rounded=0;fontFamily=Georgia;fontSize=13;" parent="1" target="OT9MZSobIj806VVKi1cu-115" edge="1">
                    <mxGeometry relative="1" as="geometry">
                        <mxPoint x="2374.8" y="-1130.4" as="sourcePoint"/>
                        <mxPoint x="2179.8" y="-1130.4" as="targetPoint"/>
                    </mxGeometry>
                </mxCell>
                <mxCell id="OT9MZSobIj806VVKi1cu-141" value="Choose transaction type" style="html=1;verticalAlign=bottom;endArrow=block;curved=0;rounded=0;fontFamily=Georgia;fontSize=13;" parent="1" target="OT9MZSobIj806VVKi1cu-111" edge="1">
                    <mxGeometry width="80" relative="1" as="geometry">
                        <mxPoint x="2179.8" y="-1080" as="sourcePoint"/>
                        <mxPoint x="2369.8" y="-1080" as="targetPoint"/>
                    </mxGeometry>
                </mxCell>
                <mxCell id="OT9MZSobIj806VVKi1cu-114" value="" style="shape=umlLifeline;perimeter=lifelinePerimeter;whiteSpace=wrap;html=1;container=1;dropTarget=0;collapsible=0;recursiveResize=0;outlineConnect=0;portConstraint=eastwest;newEdgeStyle={&quot;curved&quot;:0,&quot;rounded&quot;:0};participant=umlActor;fontFamily=Georgia;fontSize=13;" parent="1" vertex="1">
                    <mxGeometry x="2169.8" y="-1340" width="20" height="830" as="geometry"/>
                </mxCell>
                <mxCell id="OT9MZSobIj806VVKi1cu-115" value="" style="html=1;points=[];perimeter=orthogonalPerimeter;outlineConnect=0;targetShapes=umlLifeline;portConstraint=eastwest;newEdgeStyle={&quot;edgeStyle&quot;:&quot;elbowEdgeStyle&quot;,&quot;elbow&quot;:&quot;vertical&quot;,&quot;curved&quot;:0,&quot;rounded&quot;:0};fontFamily=Georgia;fontSize=13;" parent="OT9MZSobIj806VVKi1cu-114" vertex="1">
                    <mxGeometry x="5" y="80" width="10" height="730" as="geometry"/>
                </mxCell>
                <mxCell id="OT9MZSobIj806VVKi1cu-142" value="" style="endArrow=none;dashed=1;html=1;rounded=0;exitX=0.003;exitY=0.553;exitDx=0;exitDy=0;exitPerimeter=0;entryX=1.006;entryY=0.542;entryDx=0;entryDy=0;entryPerimeter=0;fontFamily=Georgia;fontSize=13;" parent="1" source="OT9MZSobIj806VVKi1cu-143" target="OT9MZSobIj806VVKi1cu-143" edge="1">
                    <mxGeometry width="50" height="50" relative="1" as="geometry">
                        <mxPoint x="2247.3999999999996" y="-900" as="sourcePoint"/>
                        <mxPoint x="2471.3999999999996" y="-954" as="targetPoint"/>
                    </mxGeometry>
                </mxCell>
                <mxCell id="OT9MZSobIj806VVKi1cu-143" value="&lt;div style=&quot;font-size: 12px;&quot;&gt;&lt;font style=&quot;font-size: 11px;&quot;&gt;Alternative&lt;/font&gt;&lt;/div&gt;" style="shape=umlFrame;whiteSpace=wrap;html=1;pointerEvents=0;fontFamily=Georgia;fontSize=13;" parent="1" vertex="1">
                    <mxGeometry x="2055" y="-1060" width="417.4" height="110" as="geometry"/>
                </mxCell>
                <mxCell id="OT9MZSobIj806VVKi1cu-144" value="[if type = once]" style="text;html=1;align=center;verticalAlign=middle;resizable=0;points=[];autosize=1;strokeColor=none;fillColor=none;fontFamily=Georgia;fontSize=13;" parent="1" vertex="1">
                    <mxGeometry x="2045" y="-1035" width="110" height="30" as="geometry"/>
                </mxCell>
                <mxCell id="OT9MZSobIj806VVKi1cu-145" value="[if type = periodic]" style="text;html=1;align=center;verticalAlign=middle;resizable=0;points=[];autosize=1;strokeColor=none;fillColor=none;fontFamily=Georgia;fontSize=13;" parent="1" vertex="1">
                    <mxGeometry x="2045" y="-1000" width="130" height="30" as="geometry"/>
                </mxCell>
                <mxCell id="OT9MZSobIj806VVKi1cu-147" value="Request One time transaction data" style="html=1;verticalAlign=bottom;endArrow=open;endSize=8;curved=0;rounded=0;fontFamily=Georgia;fontSize=13;" parent="1" target="OT9MZSobIj806VVKi1cu-115" edge="1">
                    <mxGeometry relative="1" as="geometry">
                        <mxPoint x="2379.8" y="-1030" as="sourcePoint"/>
                        <mxPoint x="2189.8" y="-1030" as="targetPoint"/>
                    </mxGeometry>
                </mxCell>
                <mxCell id="OT9MZSobIj806VVKi1cu-148" value="Request Periodic transaction data" style="html=1;verticalAlign=bottom;endArrow=open;endSize=8;curved=0;rounded=0;fontFamily=Georgia;fontSize=13;" parent="1" target="OT9MZSobIj806VVKi1cu-115" edge="1">
                    <mxGeometry relative="1" as="geometry">
                        <mxPoint x="2374.8" y="-970" as="sourcePoint"/>
                        <mxPoint x="2179.8" y="-969.8" as="targetPoint"/>
                    </mxGeometry>
                </mxCell>
                <mxCell id="OT9MZSobIj806VVKi1cu-149" value="Transaction" style="shape=umlLifeline;perimeter=lifelinePerimeter;whiteSpace=wrap;html=1;container=0;dropTarget=0;collapsible=0;recursiveResize=0;outlineConnect=0;portConstraint=eastwest;newEdgeStyle={&quot;edgeStyle&quot;:&quot;elbowEdgeStyle&quot;,&quot;elbow&quot;:&quot;vertical&quot;,&quot;curved&quot;:0,&quot;rounded&quot;:0};fontFamily=Georgia;fontSize=13;" parent="1" vertex="1">
                    <mxGeometry x="2509.8" y="-1340" width="140" height="830" as="geometry"/>
                </mxCell>
                <mxCell id="OT9MZSobIj806VVKi1cu-150" value="" style="html=1;points=[];perimeter=orthogonalPerimeter;outlineConnect=0;targetShapes=umlLifeline;portConstraint=eastwest;newEdgeStyle={&quot;edgeStyle&quot;:&quot;elbowEdgeStyle&quot;,&quot;elbow&quot;:&quot;vertical&quot;,&quot;curved&quot;:0,&quot;rounded&quot;:0};fontFamily=Georgia;fontSize=13;" parent="OT9MZSobIj806VVKi1cu-149" vertex="1">
                    <mxGeometry x="64.99999999999999" y="530" width="10" height="60" as="geometry"/>
                </mxCell>
                <mxCell id="OT9MZSobIj806VVKi1cu-160" value="" style="endArrow=none;dashed=1;html=1;rounded=0;exitX=0.001;exitY=0.778;exitDx=0;exitDy=0;exitPerimeter=0;entryX=0.998;entryY=0.776;entryDx=0;entryDy=0;entryPerimeter=0;fontFamily=Georgia;fontSize=13;" parent="1" source="OT9MZSobIj806VVKi1cu-164" target="OT9MZSobIj806VVKi1cu-164" edge="1">
                    <mxGeometry width="50" height="50" relative="1" as="geometry">
                        <mxPoint x="2074.8050000000003" y="-647.0300000000001" as="sourcePoint"/>
                        <mxPoint x="2862.16" y="-649.9999999999999" as="targetPoint"/>
                    </mxGeometry>
                </mxCell>
                <mxCell id="OT9MZSobIj806VVKi1cu-161" value="" style="edgeStyle=segmentEdgeStyle;endArrow=classic;html=1;curved=0;rounded=0;endSize=8;startSize=8;fontFamily=Georgia;fontSize=13;" parent="1" edge="1">
                    <mxGeometry width="50" height="50" relative="1" as="geometry">
                        <mxPoint x="2385" y="-880" as="sourcePoint"/>
                        <mxPoint x="2385" y="-840" as="targetPoint"/>
                        <Array as="points">
                            <mxPoint x="2469.8" y="-880"/>
                            <mxPoint x="2469.8" y="-840"/>
                        </Array>
                    </mxGeometry>
                </mxCell>
                <mxCell id="OT9MZSobIj806VVKi1cu-162" value="validateTransaction(data, type)" style="edgeLabel;html=1;align=center;verticalAlign=middle;resizable=0;points=[];fontFamily=Georgia;fontSize=13;" parent="OT9MZSobIj806VVKi1cu-161" vertex="1" connectable="0">
                    <mxGeometry x="0.1111" y="1" relative="1" as="geometry">
                        <mxPoint x="14" y="-9" as="offset"/>
                    </mxGeometry>
                </mxCell>
                <mxCell id="OT9MZSobIj806VVKi1cu-163" value="Redirect to homepage" style="html=1;verticalAlign=bottom;endArrow=open;dashed=1;endSize=8;curved=0;rounded=0;fontFamily=Georgia;fontSize=13;" parent="1" edge="1">
                    <mxGeometry relative="1" as="geometry">
                        <mxPoint x="2375" y="-625.3399999999999" as="sourcePoint"/>
                        <mxPoint x="2185" y="-625.3399999999999" as="targetPoint"/>
                    </mxGeometry>
                </mxCell>
                <mxCell id="OT9MZSobIj806VVKi1cu-164" value="&lt;div style=&quot;font-size: 11px;&quot;&gt;Alternative&lt;/div&gt;" style="shape=umlFrame;whiteSpace=wrap;html=1;pointerEvents=0;fontFamily=Georgia;fontSize=11;" parent="1" vertex="1">
                    <mxGeometry x="2055" y="-820" width="800" height="270" as="geometry"/>
                </mxCell>
                <mxCell id="OT9MZSobIj806VVKi1cu-165" value="[if transaction valid]" style="text;html=1;align=center;verticalAlign=middle;resizable=0;points=[];autosize=1;strokeColor=none;fillColor=none;fontFamily=Georgia;fontSize=13;" parent="1" vertex="1">
                    <mxGeometry x="2045" y="-790" width="140" height="30" as="geometry"/>
                </mxCell>
                <mxCell id="OT9MZSobIj806VVKi1cu-166" value="Display error message" style="html=1;verticalAlign=bottom;endArrow=open;dashed=1;endSize=8;curved=0;rounded=0;fontFamily=Georgia;fontSize=13;" parent="1" edge="1">
                    <mxGeometry relative="1" as="geometry">
                        <mxPoint x="2375" y="-570" as="sourcePoint"/>
                        <mxPoint x="2185" y="-570" as="targetPoint"/>
                    </mxGeometry>
                </mxCell>
                <mxCell id="OT9MZSobIj806VVKi1cu-167" value="[else]" style="text;html=1;align=center;verticalAlign=middle;resizable=0;points=[];autosize=1;strokeColor=none;fillColor=none;fontFamily=Georgia;fontSize=13;" parent="1" vertex="1">
                    <mxGeometry x="2045" y="-600" width="60" height="30" as="geometry"/>
                </mxCell>
                <mxCell id="OT9MZSobIj806VVKi1cu-169" value="User" style="shape=umlLifeline;perimeter=lifelinePerimeter;whiteSpace=wrap;html=1;container=0;dropTarget=0;collapsible=0;recursiveResize=0;outlineConnect=0;portConstraint=eastwest;newEdgeStyle={&quot;edgeStyle&quot;:&quot;elbowEdgeStyle&quot;,&quot;elbow&quot;:&quot;vertical&quot;,&quot;curved&quot;:0,&quot;rounded&quot;:0};fontFamily=Georgia;fontSize=13;" parent="1" vertex="1">
                    <mxGeometry x="2709.8" y="-1340" width="140" height="830" as="geometry"/>
                </mxCell>
                <mxCell id="OT9MZSobIj806VVKi1cu-170" value="" style="html=1;points=[];perimeter=orthogonalPerimeter;outlineConnect=0;targetShapes=umlLifeline;portConstraint=eastwest;newEdgeStyle={&quot;edgeStyle&quot;:&quot;elbowEdgeStyle&quot;,&quot;elbow&quot;:&quot;vertical&quot;,&quot;curved&quot;:0,&quot;rounded&quot;:0};fontFamily=Georgia;fontSize=13;" parent="OT9MZSobIj806VVKi1cu-169" vertex="1">
                    <mxGeometry x="65" y="610" width="10" height="60" as="geometry"/>
                </mxCell>
                <mxCell id="OT9MZSobIj806VVKi1cu-172" value="&lt;div align=&quot;right&quot; style=&quot;font-size: 13px;&quot;&gt;addTransaction(transaction)&lt;/div&gt;" style="html=1;verticalAlign=bottom;endArrow=block;curved=0;rounded=0;align=right;fontFamily=Georgia;fontSize=13;" parent="1" edge="1">
                    <mxGeometry x="0.0012" width="80" relative="1" as="geometry">
                        <mxPoint x="2384.8" y="-720" as="sourcePoint"/>
                        <mxPoint x="2774.8" y="-720" as="targetPoint"/>
                        <mxPoint as="offset"/>
                    </mxGeometry>
                </mxCell>
                <mxCell id="OT9MZSobIj806VVKi1cu-173" value="&lt;div align=&quot;right&quot; style=&quot;font-size: 13px;&quot;&gt;Transaction saved&lt;/div&gt;" style="html=1;verticalAlign=bottom;endArrow=open;dashed=1;endSize=8;curved=0;rounded=0;entryX=0.534;entryY=0.702;entryDx=0;entryDy=0;entryPerimeter=0;align=right;fontFamily=Georgia;fontSize=13;" parent="1" edge="1">
                    <mxGeometry relative="1" as="geometry">
                        <mxPoint x="2774.92" y="-680" as="sourcePoint"/>
                        <mxPoint x="2384.6799999999994" y="-680" as="targetPoint"/>
                    </mxGeometry>
                </mxCell>
            </root>
        </mxGraphModel>
    </diagram>
</mxfile>